<svg xmlns="http://www.w3.org/2000/svg" xml:space="preserve" width="320.04437" height="320.04437" viewBox="0 0 320.04437 320.04438"><g style="stroke-width:.518499"><path d="M123.934 68.929c0-34.079-27.627-61.706-61.706-61.706S.523 34.85.523 68.929c0 34.078 27.625 61.705 61.705 61.705s61.706-27.627 61.706-61.705" style="fill:#fff;fill-opacity:1;fill-rule:nonzero;stroke:none;stroke-width:.0518499" transform="matrix(2.57153 0 0 -2.57153 0 337.274)"/><path d="M62.228 130.113c-33.737 0-61.183-27.447-61.183-61.184S28.49 7.745 62.228 7.745s61.184 27.447 61.184 61.184-27.447 61.184-61.184 61.184m0-123.413C27.915 6.7 0 34.616 0 68.929s27.915 62.228 62.228 62.228 62.229-27.914 62.229-62.228S96.541 6.7 62.228 6.7" style="fill:#231f20;fill-opacity:1;fill-rule:nonzero;stroke:none;stroke-width:.0518499" transform="matrix(2.57153 0 0 -2.57153 0 337.274)"/><path d="M105.6 68.929c0-23.954-19.418-43.373-43.372-43.373S18.857 44.975 18.857 68.929 38.274 112.3 62.228 112.3 105.6 92.882 105.6 68.929" style="fill:#231f20;fill-opacity:1;fill-rule:nonzero;stroke:none;stroke-width:.0518499" transform="matrix(2.57153 0 0 -2.57153 0 337.274)"/><path d="M62.228 111.258c-23.34 0-42.33-18.99-42.33-42.33 0-23.339 18.99-42.328 42.33-42.328s42.33 18.99 42.33 42.329-18.99 42.329-42.33 42.329m0-86.744c-24.49 0-44.415 19.924-44.415 44.415 0 24.49 19.925 44.415 44.415 44.415s44.416-19.925 44.416-44.415c0-24.491-19.925-44.415-44.416-44.415" style="fill:#231f20;fill-opacity:1;fill-rule:nonzero;stroke:none;stroke-width:.0518499" transform="matrix(2.57153 0 0 -2.57153 0 337.274)"/><path d="M105.6 68.929c0-23.954-19.418-43.373-43.372-43.373S18.857 44.975 18.857 68.929 38.274 112.3 62.228 112.3 105.6 92.882 105.6 68.929" style="fill:#fff200;fill-opacity:1;fill-rule:nonzero;stroke:none;stroke-width:.0518499" transform="matrix(2.57153 0 0 -2.57153 0 337.274)"/><path d="M53.15 83.405c0 6.418 3.162 12.094 8.01 15.565a24 24 0 0 1-5.434.63c-13.211 0-23.922-10.71-23.922-23.925 0-13.21 10.71-23.92 23.922-23.92 9.323 0 17.392 5.335 21.34 13.115a19.2 19.2 0 0 0-4.776-.602c-10.572 0-19.14 8.568-19.14 19.137M29.915 44.474a40.56 40.56 0 0 1 13.184-11.551L49.9 39a40.14 40.14 0 0 0-19.985 5.474M82.767 103.198a40.16 40.16 0 0 0 7.785-23.124l6.512 9.03a40.6 40.6 0 0 1-14.297 14.094M54.415 39.214l-8.243-7.825a40.2 40.2 0 0 1 16.302-3.434c.986 0 1.96.046 2.93.117l-9.833 11.29c-.386-.052-.769-.107-1.157-.148M89.277 69.2a40.25 40.25 0 0 0-7.695-15.222l15.563 1.982zM101.901 59.689c.606 2.78.933 5.665.933 8.626 0 5.847-1.248 11.4-3.486 16.416l-8.644-10.249zM78.106 50.207 75.634 30.16a40.48 40.48 0 0 1 23.122 20.467l-20.424-.205q-.112-.107-.226-.215M74.407 47.054a40.2 40.2 0 0 0-16.339-7.288l11.625-11.137zM69.71 28.614l-.017.015-.005-.018z" style="fill:#231f20;fill-opacity:1;fill-rule:nonzero;stroke:none;stroke-width:.0518499" transform="matrix(2.57153 0 0 -2.57153 0 337.274)"/><path d="M75.214 96.333h-4.22v-2.874q-.001-.688.022-1.114h4.174q.024.426.024 1.114zm8.726-9.25H62.267v1.54h8.915l.024 2.184H64.52v1.538h2.893a9.5 9.5 0 0 0-.19 1.95v2.038h-2.964v1.539h17.666v-1.54h-2.94v-2.037q.001-1.041-.214-1.95h2.893v-1.538H75v-2.184h8.94zM84.794 79.243h-3.675v-4.75H77.3v9.41h3.819v-3.12h3.675zm-2.798-8.823h-13.73q-.948 0-1.364.227-.415.227-.415.784v3.767h3.818V72.34q0-.366.688-.366h11.003zm-6.047 6.947-1.47-1.319q-1.59.337-3.225 1.252-1.636.917-2.182 1.768-.498-.88-2.074-1.796a14 14 0 0 0-3.474-1.415l-1.542 1.363q2.774.85 3.96 2.14 1.137 1.245 1.138 3.255v1.113h3.865v-1.084q0-3.738 5.004-5.277M11.88 75l-.236-2.413-2.158.21.234 2.414zM12.742 96.3l-1.18-2.249 2.478-1.298q.594-.312.967-.49l1.165 2.222q-.36.206-.953.517zm10.41.47-6.056-11.548-1.326.695 2.49 4.751-1.874 1-1.869-3.564-1.326.696.807 1.541q-.834.31-1.734.78l-1.754.921-.828-1.579-1.327.696 4.934 9.412 1.328-.696-.822-1.566 1.756-.92a13 13 0 0 0 1.62-.996l.808 1.541 1.326-.695-1.86-3.55 1.883-.987 2.497 4.763zM37.44 117.161l-1.819-1.26 2.634-3.798-1.887-1.31-5.22 7.527 1.888 1.309 1.732-2.498 1.818 1.261zm3.508-8.017-6.788-4.705q-.469-.327-.8-.286-.331.04-.638.485l-2.091 3.013 1.889 1.307 1.583-2.285q.206-.293.545-.057l5.439 3.77zm-6.841 3.485.004-1.558q-.973-.277-2.289-.105-1.319.172-2.058.665.24-.875-.031-2.147a7 7 0 0 0-.932-2.321l-1.519.56q.9 1.632.772 3.068-.129 1.39-1.243 2.993l-.616.892 1.91 1.326.602-.869q2.07-2.989 5.4-2.504M60.283 126.002l.245-6.021-2.038-.249-.62 5.083q-.063.51-.502.457l-6.682-.816-.182 1.487 8.594 1.048q1.146.14 1.185-.989m2.658-9.075-12.943-1.58-.182 1.488 4.08.496-.534 4.361 2.282.279.532-4.362 6.584.804zM80.79 112.639q.241.641-.113 1.2-.354.56-1.155.861t-1.436.112q-.633-.188-.875-.829-.24-.642.11-1.207.351-.565 1.152-.867.802-.302 1.439-.107.637.196.877.837m4.78 4.453-7.813 2.933q-.64.24-.808.607-.165.37.045.929l1.338 3.565 8.947-3.359-.52-1.388-6.798 2.551-.572-1.523q-.135-.36.239-.5l6.463-2.427zm-2.722-5.226q-.489-1.295-1.755-1.664-1.267-.373-3.136.332-1.869.702-2.578 1.813-.713 1.113-.225 2.408.48 1.283 1.75 1.658 1.271.377 3.139-.324 1.87-.702 2.576-1.821.71-1.118.229-2.402m3.48 2.411-12.208 4.584.518 1.375 12.204-4.583zM106.936 99.352l-1.485 1.637-2.208-2.002-1.544 1.702 5.772 5.23 1.542-1.701-2.452-2.223 1.485-1.637zm-5.243 6.317q.496.449.549.998.05.548-.351.991-.412.454-.959.451-.544-.003-1.042-.454-.496-.45-.554-.993-.056-.543.355-.997.404-.442.953-.445.55-.001 1.049.449m3.148-.862-.767.846q-.212-.869-.965-1.549-1.047-.948-2.275-.812-1.233.135-2.305 1.32-1.073 1.184-1.092 2.427-.02 1.241 1.026 2.191.75.68 1.645.798l-.825.908 1.113 1.006 2.029-2.24 1.227 1.112 1.542-1.702-1.226-1.111 1.983-2.188zm-2.787-6.974-3.048-2.435-1.408 1.554 2.2 1.992c.224.204.243.413.048.624l-4.357 4.809 1.11 1.006 5.594-6.173q.672-.741-.139-1.377M118.714 77.914l-5.955-1.063-.5 1.993 4.999 1.249q.496.125.389.555l-1.693 6.766 1.455.364 2.142-8.566q.278-1.107-.837-1.298m-8.691-3.762L106.858 86.8l1.454.364.611-2.45 4.32 1.08.504-2.02-4.317-1.08.281-1.12 4.317 1.08.506-2.02-4.319-1.082 1.261-5.037zM112.904 65.12l.122 2.421 2.167-.11-.123-2.422zM12.342 55.89q.504-.512 1.324-.332.819.182 1.041.853.224.672.065 1.387l-.547 2.483-3.095-.683.547-2.482q.158-.716.665-1.226m3.581-.567q-.6-1.203-1.877-1.485-1.236-.273-2.322.559-1.085.829-1.412 2.306l-.569 2.588-3.554-.783-.335 1.65 9.41 2.074.934-4.23q.325-1.479-.275-2.68" style="fill:#231f20;fill-opacity:1;fill-rule:nonzero;stroke:none;stroke-width:.0518499" transform="matrix(2.57153 0 0 -2.57153 0 337.274)"/><path d="M12.248 46.35q1.262-.375 2.765.23 1.49.6 2.116 1.732.623 1.134.087 2.465c-.359.896-.948 1.468-1.767 1.708q-1.225.365-2.717-.235-1.503-.603-2.16-1.727-.661-1.12-.119-2.468.534-1.328 1.795-1.705m6.329 1.125q-.795-1.764-2.877-2.602-2.108-.848-3.923-.132-1.812.717-2.644 2.785-.825 2.054-.004 3.803.82 1.75 2.93 2.6 2.084.835 3.866.135 1.784-.704 2.61-2.757.831-2.068.042-3.832" style="fill:#231f20;fill-opacity:1;fill-rule:nonzero;stroke:none;stroke-width:.0518499" transform="matrix(2.57153 0 0 -2.57153 0 337.274)"/><path d="M18.993 38.116a2.13 2.13 0 0 0-1.155-1.15q-1.038-.453-2.299-.023-1.26.428-2.248 2.054-1.096 1.796-.626 3.324.467 1.524 1.577 2.22l.883-1.454q-.87-.565-1.016-1.503-.143-.936.408-1.841.549-.907 1.186-1.141.633-.235 1.224-.057.477.145.612.564.135.421.055.992a4.3 4.3 0 0 1-.455 1.43q-.361.702-.528 1.55-.222 1.125.005 1.918.22.794 1.118 1.265.85.465 2.116.13 1.269-.33 2.248-1.942 1.145-1.879.561-3.217-.58-1.34-1.35-1.773l-.875 1.439q.636.404.832 1.136.195.73-.382 1.674-.534.88-1.16 1.046t-1.06-.078q-.48-.276-.511-.77a3.1 3.1 0 0 1 .073-.94q.126-.562.485-1.373.365-.811.493-1.736a3.14 3.14 0 0 0-.21-1.744M24.955 36.96l-4.285-1.34 2.318-2.695zM21.2 29.248l1.085 2.27-3.12 3.63-2.384-.736-1.14 1.303 10.043 3.144 1.24-1.443-4.594-9.48zM27.674 23.61l1.063 8.624-4.67-5.673-1.283 1.093 6.114 7.427 1.473-1.228-1.028-8.635 4.672 5.652 1.278-1.049-6.113-7.45zM41.783 15.735l1.713 3.95-4.405 1.911-1.726-3.977-1.532.698 3.832 8.827 1.544-.672-1.54-3.545 4.404-1.912 1.539 3.546 1.532-.663-3.823-8.847zM44.761 14.73l2.813 9.202 1.58-.483-2.802-9.219zM54.885 12.4l.165.997q-.517-.4-1.335-.668-.817-.272-1.813-.09-2.21.403-3.236 2.034-1.028 1.632-.618 3.868.4 2.211 1.924 3.341 1.52 1.132 3.743.729 2.088-.381 2.965-1.653.877-1.274.94-2.31l-1.793.327q-.117.656-.628 1.336-.511.676-1.739.9-1.441.263-2.395-.582-.952-.844-1.24-2.412-.283-1.565.304-2.734t2.03-1.432q1.303-.237 2.173.407.868.645 1.144 1.547l-2.821.513.239 1.315 4.524-.823-.865-4.93zM64.22 12.002l.025 4.307-4.802.026-.025-4.334-1.683.036.053 9.623 1.683-.009-.02-3.867 4.8-.026.022 3.867 1.667-.01-.036-9.636zM79.648 18.841q.675-.562.78-1.432.142-1.124-.622-2.213c-.508-.727-1.378-1.253-2.6-1.583q-2.033-.548-3.368.328-1.335.879-1.69 2.136l1.641.443q.301-.994 1.16-1.396.86-.402 1.884-.127 1.022.277 1.426.82.401.543.398 1.161-.007.498-.372.746-.367.247-.936.328a4.3 4.3 0 0 1-1.5-.037 5.8 5.8 0 0 0-1.636-.07q-1.142.102-1.842.54-.698.438-.9 1.427-.207.947.468 2.07.672 1.123 2.497 1.615 2.12.571 3.244-.362t1.324-1.794l-1.626-.437a1.88 1.88 0 0 1-.859 1.116q-.645.39-1.714.105-.994-.268-1.33-.823-.334-.554-.22-1.038.128-.539.593-.709.465-.168.925-.19.575-.038 1.454.08.882.12 1.804-.013a3.16 3.16 0 0 0 1.617-.691" style="fill:#231f20;fill-opacity:1;fill-rule:nonzero;stroke:none;stroke-width:.0518499" transform="matrix(2.57153 0 0 -2.57153 0 337.274)"/><path d="M85.588 24.302q-.466.506-1.275.779-.808.276-1.974-.249-1.292-.584-1.626-1.818t.345-2.736q.678-1.504 1.836-2.096 1.156-.595 2.449-.009 1.138.512 1.464 1.377.329.865.219 1.643l1.626.715q.227-1.188-.298-2.675-.527-1.484-2.432-2.344-2.061-.93-3.819-.18-1.757.753-2.693 2.824-.93 2.06-.319 3.856.608 1.796 2.67 2.724 1.945.878 3.394.325 1.449-.557 2.095-1.386z" style="fill:#231f20;fill-opacity:1;fill-rule:nonzero;stroke:none;stroke-width:.0518499" transform="matrix(2.57153 0 0 -2.57153 0 337.274)"/><path d="m96.076 23.142-2.413 3.566-3.977-2.692 2.43-3.589-1.41-.922-5.396 7.968 1.395.943 2.17-3.201 3.973 2.693-2.166 3.202 1.38.935 5.418-7.971z" style="fill:#231f20;fill-opacity:1;fill-rule:nonzero;stroke:none;stroke-width:.0518499" transform="matrix(2.57153 0 0 -2.57153 0 337.274)"/><path d="M101.856 31.13q-.13 1.309-1.259 2.474-1.118 1.153-2.401 1.302-1.288.148-2.316-.85-1.04-1.01-.914-2.282.127-1.275 1.245-2.426 1.129-1.164 2.417-1.35 1.29-.184 2.328.824 1.03 1 .9 2.309m-3.434 5.433q1.933-.067 3.497-1.679 1.582-1.632 1.606-3.58.022-1.949-1.579-3.502-1.588-1.542-3.519-1.443-1.929.097-3.513 1.729-1.564 1.612-1.588 3.53t1.565 3.457c1.065 1.037 2.244 1.53 3.531 1.488" style="fill:#231f20;fill-opacity:1;fill-rule:nonzero;stroke:none;stroke-width:.0518499" transform="matrix(2.57153 0 0 -2.57153 0 337.274)"/><path d="M107.977 38.804c-.228.848-.78 1.592-1.647 2.232q-1.294.953-2.585.889-1.293-.065-2.144-1.219-.86-1.166-.524-2.4.334-1.237 1.626-2.188 1.304-.962 2.605-.934 1.301.03 2.161 1.195.852 1.155.508 2.425m-4.281 4.793q1.918.252 3.726-1.081 1.83-1.35 2.172-3.267.344-1.92-.981-3.712-1.312-1.783-3.233-2.003-1.92-.222-3.751 1.127-1.807 1.333-2.145 3.22-.34 1.887.973 3.669 1.324 1.794 3.239 2.047" style="fill:#231f20;fill-opacity:1;fill-rule:nonzero;stroke:none;stroke-width:.0518499" transform="matrix(2.57153 0 0 -2.57153 0 337.274)"/><path d="m111.6 40.563-8.593 4.329.759 1.503 7.335-3.695 2.429 4.851 1.283-.646z" style="fill:#231f20;fill-opacity:1;fill-rule:nonzero;stroke:none;stroke-width:.0518499" transform="matrix(2.57153 0 0 -2.57153 0 337.274)"/></g></svg>